<svg xmlns="http://www.w3.org/2000/svg" width="20.986" height="15.74" viewBox="0 0 20.986 15.74">
  <path id="Icon_awesome-envelope" data-name="Icon awesome-envelope" d="M20.589,9.7a.247.247,0,0,1,.4.193v8.382a1.968,1.968,0,0,1-1.967,1.967H1.967A1.968,1.968,0,0,1,0,18.272V9.894A.245.245,0,0,1,.4,9.7c.918.713,2.136,1.619,6.316,4.656.865.631,2.324,1.959,3.779,1.951,1.463.012,2.951-1.344,3.783-1.951C18.457,11.321,19.67,10.411,20.589,9.7Zm-10.1,5.3c.951.016,2.32-1.2,3.009-1.7C18.941,9.349,19.355,9,20.609,8.021a.981.981,0,0,0,.377-.775V6.467A1.968,1.968,0,0,0,19.019,4.5H1.967A1.968,1.968,0,0,0,0,6.467v.779a.987.987,0,0,0,.377.775C1.631,9,2.045,9.349,7.485,13.3,8.173,13.8,9.542,15.009,10.493,14.993Z" transform="translate(0 -4.5)" fill="#080808"/>
</svg>
